<svg fill="none" height="190" viewBox="0 0 317 190" width="317" xmlns="http://www.w3.org/2000/svg" xmlns:xlink="http://www.w3.org/1999/xlink"><filter id="a" color-interpolation-filters="sRGB" filterUnits="userSpaceOnUse" height="214" width="340" x="-11.6456" y="-12"><feFlood flood-opacity="0" result="BackgroundImageFix"/><feGaussianBlur in="BackgroundImage" stdDeviation="6"/><feComposite in2="SourceAlpha" operator="in" result="effect1_backgroundBlur_10_10967"/><feBlend in="SourceGraphic" in2="effect1_backgroundBlur_10_10967" mode="normal" result="shape"/></filter><filter id="b" color-interpolation-filters="sRGB" filterUnits="userSpaceOnUse" height="416" width="416" x="-143.646" y="-144"><feFlood flood-opacity="0" result="BackgroundImageFix"/><feBlend in="SourceGraphic" in2="BackgroundImageFix" mode="normal" result="shape"/><feGaussianBlur result="effect1_foregroundBlur_10_10967" stdDeviation="64"/></filter><clipPath id="c"><path d="m.354416 20c0-11.04569 8.954304-20 19.999984-20h275.9996c11.046 0 20 8.95431 20 20v150c0 11.046-8.954 20-20 20h-275.9996c-11.04568 0-19.999984-8.954-19.999984-20z"/></clipPath><clipPath id="d"><path d="m276.354 20h20v24h-20z"/></clipPath><g filter="url(#a)"><g clip-path="url(#c)"><g filter="url(#b)"><path d="m-15.6456 64c0-44.1828 35.8172-80 80-80v80z" fill="#ee46bc" opacity=".3"/><path d="m64.3544-16c44.1826 0 79.9996 35.8172 79.9996 80h-79.9996z" fill="#ef6820" opacity=".3"/><path d="m-15.6456 64h80v80c-44.1828 0-80-35.817-80-80z" fill="#2e90fa" opacity=".3"/><path d="m64.3544 64h79.9996c0 44.183-35.817 80-79.9996 80z" fill="#12b76a" opacity=".3"/></g><g fill="#fff"><path d="m255.354 146c0-2.209 1.791-4 4-4h37.334c2.209 0 4 1.791 4 4v24c0 2.209-1.791 4-4 4h-37.334c-2.209 0-4-1.791-4-4z" fill-opacity=".1"/><path clip-rule="evenodd" d="m278.26 164.439c-1.579 1.331-3.627 2.134-5.865 2.134-4.993 0-9.041-3.999-9.041-8.933s4.048-8.933 9.041-8.933c2.238 0 4.286.803 5.865 2.134 1.578-1.331 3.626-2.134 5.864-2.134 4.993 0 9.041 3.999 9.041 8.933s-4.048 8.933-9.041 8.933c-2.238 0-4.286-.803-5.864-2.134z" fill-rule="evenodd" opacity=".5"/><path clip-rule="evenodd" d="m278.26 164.439c1.944-1.638 3.176-4.077 3.176-6.799 0-2.723-1.232-5.161-3.176-6.799 1.578-1.331 3.626-2.134 5.864-2.134 4.993 0 9.041 3.999 9.041 8.933s-4.048 8.933-9.041 8.933c-2.238 0-4.286-.803-5.864-2.134z" fill-rule="evenodd" opacity=".5"/><path clip-rule="evenodd" d="m278.26 164.439c1.944-1.638 3.176-4.076 3.176-6.799s-1.232-5.161-3.176-6.799c-1.944 1.638-3.177 4.076-3.177 6.799s1.233 5.161 3.177 6.799z" fill-rule="evenodd"/><path d="m19.4824 169v-9.68l-2.168 1.32v-1.864l2.168-1.296h1.704v11.52zm6.822-.008.008-1.488 5.016-4.496c.4053-.357.68-.699.824-1.024.1493-.325.224-.651.224-.976 0-.411-.0907-.779-.272-1.104-.1813-.331-.432-.592-.752-.784s-.688-.288-1.104-.288c-.4267 0-.808.101-1.144.304-.3307.197-.5893.461-.776.792s-.2773.688-.272 1.072h-1.712c0-.747.168-1.4.504-1.96.3413-.565.808-1.005 1.4-1.32.592-.32 1.2693-.48 2.032-.48.7253 0 1.376.165 1.952.496.576.325 1.0293.773 1.36 1.344.336.571.504 1.221.504 1.952 0 .528-.0693.976-.208 1.344s-.3467.709-.624 1.024-.624.656-1.04 1.024l-3.872 3.456-.184-.48h5.928v1.592zm15.3346.224c-.5706 0-1.1066-.107-1.608-.32-.5013-.219-.936-.528-1.304-.928-.3626-.4-.6266-.872-.792-1.416l1.616-.448c.1547.496.424.877.808 1.144.384.261.8107.389 1.28.384.4214-.005.792-.104 1.112-.296s.5707-.451.752-.776c.1814-.331.272-.709.272-1.136 0-.64-.2-1.168-.6-1.584-.3946-.416-.912-.624-1.552-.624-.1813 0-.368.027-.56.08-.1866.053-.3626.123-.528.208l-.784-1.32 4.064-3.592.176.48h-5.6v-1.592h6.928v1.592l-3.376 3.248-.016-.544c.7254 0 1.3547.163 1.888.488.5334.32.944.757 1.232 1.312.2934.549.44 1.165.44 1.848 0 .736-.1733 1.389-.52 1.96-.3413.571-.8026 1.019-1.384 1.344-.576.325-1.224.488-1.944.488zm13.2123-.216v-2.008h-5.2v-1.584l3.744-7.928h1.912l-3.744 7.928h3.288v-3.12h1.696v3.12h1.144v1.584h-1.144v2.008zm14.7717 0v-9.68l-2.168 1.32v-1.864l2.168-1.296h1.704v11.52zm6.822-.008.008-1.488 5.016-4.496c.4054-.357.68-.699.824-1.024.1494-.325.224-.651.224-.976 0-.411-.0906-.779-.272-1.104-.1813-.331-.432-.592-.752-.784s-.688-.288-1.104-.288c-.4266 0-.808.101-1.144.304-.3306.197-.5893.461-.776.792-.1866.331-.2773.688-.272 1.072h-1.712c0-.747.168-1.4.504-1.96.3414-.565.808-1.005 1.4-1.32.592-.32 1.2694-.48 2.032-.48.7254 0 1.376.165 1.952.496.576.325 1.0294.773 1.36 1.344.336.571.504 1.221.504 1.952 0 .528-.0693.976-.208 1.344-.1386.368-.3466.709-.624 1.024-.2773.315-.624.656-1.04 1.024l-3.872 3.456-.184-.48h5.928v1.592zm15.3347.224c-.5707 0-1.1067-.107-1.608-.32-.5014-.219-.936-.528-1.304-.928-.3627-.4-.6267-.872-.792-1.416l1.616-.448c.1546.496.424.877.808 1.144.384.261.8106.389 1.28.384.4213-.005.792-.104 1.112-.296s.5706-.451.752-.776c.1813-.331.272-.709.272-1.136 0-.64-.2-1.168-.6-1.584-.3947-.416-.912-.624-1.552-.624-.1814 0-.368.027-.56.08-.1867.053-.3627.123-.528.208l-.784-1.32 4.064-3.592.176.48h-5.6v-1.592h6.928v1.592l-3.376 3.248-.016-.544c.7253 0 1.3546.163 1.888.488.5333.32.944.757 1.232 1.312.2933.549.44 1.165.44 1.848 0 .736-.1734 1.389-.52 1.96-.3414.571-.8027 1.019-1.384 1.344-.576.325-1.224.488-1.944.488zm13.2123-.216v-2.008h-5.2001v-1.584l3.7441-7.928h1.912l-3.744 7.928h3.288v-3.12h1.696v3.12h1.144v1.584h-1.144v2.008zm14.772 0v-9.68l-2.168 1.32v-1.864l2.168-1.296h1.704v11.52zm6.822-.008.008-1.488 5.016-4.496c.405-.357.68-.699.824-1.024.149-.325.224-.651.224-.976 0-.411-.091-.779-.272-1.104-.182-.331-.432-.592-.752-.784s-.688-.288-1.104-.288c-.427 0-.808.101-1.144.304-.331.197-.59.461-.776.792-.187.331-.278.688-.272 1.072h-1.712c0-.747.168-1.4.504-1.96.341-.565.808-1.005 1.4-1.32.592-.32 1.269-.48 2.032-.48.725 0 1.376.165 1.952.496.576.325 1.029.773 1.36 1.344.336.571.504 1.221.504 1.952 0 .528-.07.976-.208 1.344-.139.368-.347.709-.624 1.024-.278.315-.624.656-1.04 1.024l-3.872 3.456-.184-.48h5.928v1.592zm15.334.224c-.57 0-1.106-.107-1.608-.32-.501-.219-.936-.528-1.304-.928-.362-.4-.626-.872-.792-1.416l1.616-.448c.155.496.424.877.808 1.144.384.261.811.389 1.28.384.422-.005.792-.104 1.112-.296s.571-.451.752-.776c.182-.331.272-.709.272-1.136 0-.64-.2-1.168-.6-1.584-.394-.416-.912-.624-1.552-.624-.181 0-.368.027-.56.08-.186.053-.362.123-.528.208l-.784-1.32 4.064-3.592.176.48h-5.6v-1.592h6.928v1.592l-3.376 3.248-.016-.544c.726 0 1.355.163 1.888.488.534.32.944.757 1.232 1.312.294.549.44 1.165.44 1.848 0 .736-.173 1.389-.52 1.96-.341.571-.802 1.019-1.384 1.344-.576.325-1.224.488-1.944.488zm13.213-.216v-2.008h-5.2v-1.584l3.744-7.928h1.912l-3.744 7.928h3.288v-3.12h1.696v3.12h1.144v1.584h-1.144v2.008zm14.771 0v-9.68l-2.168 1.32v-1.864l2.168-1.296h1.704v11.52zm6.822-.008.008-1.488 5.016-4.496c.406-.357.68-.699.824-1.024.15-.325.224-.651.224-.976 0-.411-.09-.779-.272-1.104-.181-.331-.432-.592-.752-.784s-.688-.288-1.104-.288c-.426 0-.808.101-1.144.304-.33.197-.589.461-.776.792-.186.331-.277.688-.272 1.072h-1.712c0-.747.168-1.4.504-1.96.342-.565.808-1.005 1.4-1.32.592-.32 1.27-.48 2.032-.48.726 0 1.376.165 1.952.496.576.325 1.03.773 1.36 1.344.336.571.504 1.221.504 1.952 0 .528-.069.976-.208 1.344-.138.368-.346.709-.624 1.024-.277.315-.624.656-1.04 1.024l-3.872 3.456-.184-.48h5.928v1.592zm15.335.224c-.571 0-1.107-.107-1.608-.32-.501-.219-.936-.528-1.304-.928-.363-.4-.627-.872-.792-1.416l1.616-.448c.155.496.424.877.808 1.144.384.261.811.389 1.28.384.421-.005.792-.104 1.112-.296s.571-.451.752-.776c.181-.331.272-.709.272-1.136 0-.64-.2-1.168-.6-1.584-.395-.416-.912-.624-1.552-.624-.181 0-.368.027-.56.08-.187.053-.363.123-.528.208l-.784-1.32 4.064-3.592.176.48h-5.6v-1.592h6.928v1.592l-3.376 3.248-.016-.544c.725 0 1.355.163 1.888.488.533.32.944.757 1.232 1.312.293.549.44 1.165.44 1.848 0 .736-.173 1.389-.52 1.96-.341.571-.803 1.019-1.384 1.344-.576.325-1.224.488-1.944.488zm13.212-.216v-2.008h-5.2v-1.584l3.744-7.928h1.912l-3.744 7.928h3.288v-3.12h1.696v3.12h1.144v1.584h-1.144v2.008z"/><path d="m20.8004 141.18c-.864 0-1.6-.188-2.208-.564-.608-.38-1.074-.908-1.398-1.584-.32-.676-.48-1.46-.48-2.352s.16-1.676.48-2.352c.324-.676.79-1.202 1.398-1.578.608-.38 1.344-.57 2.208-.57.86 0 1.594.19 2.202.57.612.376 1.078.902 1.398 1.578s.48 1.46.48 2.352-.16 1.676-.48 2.352-.786 1.204-1.398 1.584c-.608.376-1.342.564-2.202.564zm0-1.194c.612.008 1.12-.126 1.524-.402.408-.28.714-.668.918-1.164.204-.5.306-1.08.306-1.74s-.102-1.236-.306-1.728c-.204-.496-.51-.882-.918-1.158-.404-.276-.912-.416-1.524-.42-.612-.008-1.122.126-1.53.402-.404.276-.708.664-.912 1.164s-.308 1.08-.312 1.74.096 1.238.3 1.734c.204.492.51.876.918 1.152.412.276.924.416 1.536.42zm5.9968 1.014v-8.64h1.254v7.458h3.912v1.182zm6.9047 0v-8.64h1.254v8.64zm5.6838 0-2.808-8.64h1.302l2.394 7.374 2.424-7.374h1.302l-2.808 8.64zm6.2389 0v-8.64h1.254v8.64zm3.0558 0 2.808-8.64h1.806l2.808 8.64h-1.302l-2.586-7.884h.324l-2.556 7.884zm1.458-1.95v-1.176h4.512v1.176zm10.6427 1.95v-8.64h3.492c.084 0 .188.004.312.012.124.004.242.016.354.036.48.076.88.24 1.2.492.324.252.566.57.726.954s.24.808.24 1.272c0 .688-.176 1.282-.528 1.782-.352.496-.88.806-1.584.93l-.51.06h-2.448v3.102zm5.052 0-1.704-3.516 1.266-.324 1.872 3.84zm-3.798-4.29h2.19c.08 0 .168-.004.264-.012.1-.008.194-.022.282-.042.256-.06.462-.17.618-.33.156-.164.268-.352.336-.564s.102-.424.102-.636-.034-.422-.102-.63c-.068-.212-.18-.398-.336-.558-.156-.164-.362-.276-.618-.336-.088-.024-.182-.04-.282-.048-.096-.008-.184-.012-.264-.012h-2.19zm7.1507 4.29v-8.64h1.254v3.726h4.32v-3.726h1.26v8.64h-1.26v-3.732h-4.32v3.732zm11.2016 0v-3.57l-2.922-5.07h1.464l2.094 3.63 2.094-3.63h1.464l-2.922 5.07v3.57zm5.6312 0v-8.64h5.52v1.182h-4.266v2.424h3.546v1.182h-3.546v2.67h4.266v1.182z"/><path d="m176.599 141.18c-.588 0-1.108-.128-1.56-.384-.452-.26-.808-.616-1.068-1.068-.256-.452-.384-.972-.384-1.56v-2.976c0-.588.128-1.108.384-1.56.26-.452.616-.806 1.068-1.062.452-.26.972-.39 1.56-.39s1.108.13 1.56.39c.452.256.806.61 1.062 1.062.26.452.39.972.39 1.56v2.976c0 .588-.13 1.108-.39 1.56-.256.452-.61.808-1.062 1.068-.452.256-.972.384-1.56.384zm0-1.2c.32 0 .61-.076.87-.228.264-.156.474-.364.63-.624.156-.264.234-.558.234-.882v-3.144c0-.32-.078-.61-.234-.87-.156-.264-.366-.472-.63-.624-.26-.156-.55-.234-.87-.234s-.612.078-.876.234c-.26.152-.468.36-.624.624-.156.26-.234.55-.234.87v3.144c0 .324.078.618.234.882.156.26.364.468.624.624.264.152.556.228.876.228zm8.258 1.2c-.56 0-1.064-.132-1.512-.396-.448-.268-.804-.634-1.068-1.098-.26-.464-.39-.992-.39-1.584v-2.754c0-.628.13-1.18.39-1.656.264-.476.628-.846 1.092-1.11.468-.264 1.006-.396 1.614-.396.456 0 .884.086 1.284.258s.746.428 1.038.768l-.918.858c-.164-.212-.37-.38-.618-.504-.244-.128-.506-.192-.786-.192-.36 0-.676.086-.948.258-.272.168-.486.39-.642.666-.152.276-.228.572-.228.888v1.584l-.246-.276c.248-.324.556-.58.924-.768s.762-.282 1.182-.282c.536 0 1.014.126 1.434.378.424.248.756.586.996 1.014.244.428.366.91.366 1.446 0 .54-.136 1.03-.408 1.47-.268.436-.628.784-1.08 1.044-.448.256-.94.384-1.476.384zm0-1.206c.312 0 .596-.076.852-.228s.46-.356.612-.612.228-.54.228-.852-.076-.596-.228-.852c-.148-.256-.35-.46-.606-.612s-.54-.228-.852-.228-.598.076-.858.228c-.256.152-.46.356-.612.612s-.228.54-.228.852c0 .308.076.59.228.846s.356.462.612.618c.256.152.54.228.852.228zm7.267-7.614h1.266l-2.304 8.64h-1.266zm3.191 8.634.006-1.116 3.762-3.372c.304-.268.51-.524.618-.768.112-.244.168-.488.168-.732 0-.308-.068-.584-.204-.828-.136-.248-.324-.444-.564-.588s-.516-.216-.828-.216c-.32 0-.606.076-.858.228-.248.148-.442.346-.582.594s-.208.516-.204.804h-1.284c0-.56.126-1.05.378-1.47.256-.424.606-.754 1.05-.99.444-.24.952-.36 1.524-.36.544 0 1.032.124 1.464.372.432.244.772.58 1.02 1.008.252.428.378.916.378 1.464 0 .396-.052.732-.156 1.008s-.26.532-.468.768-.468.492-.78.768l-2.904 2.592-.138-.36h4.446v1.194zm11.309.006v-1.506h-3.9v-1.188l2.808-5.946h1.434l-2.808 5.946h2.466v-2.34h1.272v2.34h.858v1.188h-.858v1.506z"/><path d="m28.8374 23.3636h2.1079v7.6023c0 .8333-.1969 1.5663-.5909 2.1989-.3901.6325-.9394 1.1269-1.6477 1.4829-.7083.3523-1.536.5284-2.483.5284-.9507 0-1.7803-.1761-2.4886-.5284-.7083-.356-1.2576-.8504-1.6477-1.4829-.3902-.6326-.5853-1.3656-.5853-2.1989v-7.6023h2.108v7.4262c0 .4848.1061.9166.3182 1.2954.2159.3788.5189.6762.9091.8921.3901.2121.8522.3182 1.3863.3182s.9962-.1061 1.3864-.3182c.3939-.2159.697-.5133.9091-.8921s.3182-.8106.3182-1.2954zm6.365 6.5228v5.1136h-2.0568v-8.7273h1.9659v1.483h.1023c.2007-.4887.5208-.8769.9602-1.1648.4432-.2879.9905-.4318 1.6421-.4318.6022 0 1.1269.1288 1.5738.3864.4508.2575.7993.6306 1.0455 1.1193.25.4886.3731 1.0814.3693 1.7784v5.5568h-2.0568v-5.2386c0-.5834-.1515-1.0398-.4546-1.3694-.2992-.3295-.714-.4943-1.2443-.4943-.3598 0-.6799.0796-.9602.2387-.2765.1553-.4943.3806-.6534.6761-.1553.2955-.233.6534-.233 1.0739zm12.0512-3.6137v1.5909h-5.0171v-1.5909zm-3.7784-2.0909h2.0568v8.1932c0 .2765.0416.4886.125.6364.0871.1439.2007.2424.3409.2954.1401.053.2954.0796.4659.0796.1288 0 .2462-.0095.3523-.0284.1098-.019.1931-.036.25-.0512l.3466 1.608c-.1099.0379-.2671.0795-.4716.125-.2008.0454-.447.0719-.7387.0795-.5151.0152-.9791-.0625-1.392-.2329-.4129-.1743-.7405-.4432-.983-.8069-.2386-.3636-.356-.8181-.3522-1.3636zm5.4985 10.8182v-8.7273h2.0569v8.7273zm1.0341-9.9659c-.3257 0-.606-.108-.8409-.3239-.2348-.2197-.3523-.4829-.3523-.7897 0-.3107.1175-.5739.3523-.7898.2349-.2197.5152-.3296.8409-.3296.3296 0 .6099.1099.8409.3296.2349.2159.3523.4791.3523.7898 0 .3068-.1174.57-.3523.7897-.231.2159-.5113.3239-.8409.3239zm7.4958 1.2386v1.5909h-5.0171v-1.5909zm-3.7784-2.0909h2.0568v8.1932c0 .2765.0416.4886.125.6364.0871.1439.2007.2424.3409.2954.1401.053.2954.0796.4659.0796.1288 0 .2462-.0095.3523-.0284.1098-.019.1931-.036.25-.0512l.3466 1.608c-.1099.0379-.2671.0795-.4716.125-.2008.0454-.447.0719-.7387.0795-.5151.0152-.9791-.0625-1.392-.2329-.4129-.1743-.7405-.4432-.983-.8069-.2386-.3636-.356-.8181-.3522-1.3636zm7.7429-.8182v11.6364h-2.0569v-11.6364zm5.9786 11.8069c-.875 0-1.6306-.1819-2.267-.5455-.6326-.3674-1.1193-.8864-1.4602-1.5568-.3409-.6743-.5114-1.4678-.5114-2.3807 0-.8977.1705-1.6856.5114-2.3636.3447-.6819.8257-1.2122 1.4432-1.5909.6174-.3826 1.3428-.5739 2.1761-.5739.5379 0 1.0454.0871 1.5227.2614.4811.1704.9053.4356 1.2727.7954.3713.3599.6629.8182.875 1.375.2122.553.3182 1.2121.3182 1.9773v.6307h-7.1534v-1.3864h5.1818c-.0038-.3939-.089-.7443-.2556-1.0511-.1667-.3106-.3997-.555-.6989-.733-.2955-.178-.6402-.267-1.0341-.267-.4205 0-.7898.1022-1.108.3068-.3181.2007-.5662.4659-.7443.7954-.1742.3258-.2632.6837-.267 1.0739v1.2102c0 .5076.0928.9432.2784 1.3068.1856.3599.4451.6364.7784.8296.3333.1894.7235.2841 1.1705.2841.2992 0 .57-.0417.8125-.125.2424-.0871.4526-.214.6306-.3807.1781-.1667.3125-.3731.4034-.6193l1.9205.2159c-.1212.5076-.3523.9507-.6932 1.3295-.3371.375-.7689.6667-1.2954.875-.5266.2046-1.1288.3069-1.8069.3069zm8.8594-.0171c-.6856 0-1.2992-.1761-1.8409-.5284s-.9697-.8636-1.2841-1.5341c-.3144-.6704-.4716-1.4848-.4716-2.4432 0-.9697.1591-1.7879.4773-2.4545.322-.6705.7557-1.1762 1.3011-1.5171.5455-.3447 1.1534-.517 1.8239-.517.5114 0 .9318.0871 1.2614.2614.3295.1704.5909.3768.7841.6193.1931.2386.3428.464.4488.6761h.0852v-4.3523h2.0625v11.6364h-2.0227v-1.375h-.125c-.106.2121-.2594.4375-.4602.6761-.2008.2349-.4659.4356-.7955.6023-.3295.1667-.7443.25-1.2443.25zm.5739-1.6875c.4356 0 .8068-.1174 1.1136-.3523.3068-.2386.5398-.57.6989-.9943.1591-.4242.2386-.9185.2386-1.4829s-.0795-1.055-.2386-1.4716c-.1553-.4167-.3864-.7406-.6932-.9716-.303-.2311-.6761-.3466-1.1193-.3466-.4583 0-.8409.1193-1.1477.3579-.3069.2387-.5379.5682-.6932.9887-.1553.4204-.233.9015-.233 1.4432 0 .5454.0777 1.0322.233 1.4602.1591.4242.392.7595.6988 1.0057.3106.2424.6913.3636 1.1421.3636zm7.5327 1.6591c-.3447 0-.6402-.1212-.8864-.3636-.2462-.2425-.3674-.5379-.3636-.8864-.0038-.3409.1174-.6326.3636-.875s.5417-.3636.8864-.3636c.3333 0 .6231.1212.8693.3636.25.2424.3769.5341.3807.875-.0038.2311-.0644.4413-.1819.6307-.1136.1894-.2651.3409-.4545.4545-.1856.1099-.3902.1648-.6136.1648z"/></g><g clip-path="url(#d)"><path d="m291.497 21.2856c1.881 3.2576 2.871 6.9528 2.871 10.7143s-.99 7.4568-2.871 10.7143m-4.714-19.0714c1.467 2.5409 2.239 5.4232 2.239 8.3571 0 2.934-.772 5.8163-2.239 8.3572m-4.5-14.55c1.061 1.8568 1.619 3.9631 1.619 6.1071 0 2.1441-.558 4.2504-1.619 6.1072m-4.5-9.8786c.764 1.157 1.17 2.4934 1.17 3.8571 0 1.3638-.406 2.7002-1.17 3.8572" stroke="#fff" stroke-linecap="round" stroke-width="2.57143"/></g></g></g></svg>